Coordinates
version=1
nRows=17
nColumns=24
inDegrees=yes

Units are S.I. units (second, meters, Newtons, ...)
Angles are in degrees.

endheader
time	pelvis_tilt	pelvis_list	pelvis_rotation	pelvis_tx	pelvis_ty	pelvis_tz	hip_flexion_r	hip_adduction_r	hip_rotation_r	knee_angle_r	ankle_angle_r	subtalar_angle_r	mtp_angle_r	hip_flexion_l	hip_adduction_l	hip_rotation_l	knee_angle_l	ankle_angle_l	subtalar_angle_l	mtp_angle_l	lumbar_extension	lumbar_bending	lumbar_rotation
      4.91000000	     66.06675090	      4.36012602	     -1.32782801	      0.76814065	      1.02751099	     -0.28876614	     -1.76063146	    -10.46978757	     -2.20753976	    -57.62322884	     15.98542901	    -11.97996501	    -41.36231045	     -2.64308973	     -2.85008388	    -11.87026575	    -63.92132609	     11.13968319	     -3.22388510	-3211063.32234976	      0.00000000	      0.00000000	      0.00000000
      4.92000000	     66.08877361	      4.38927828	     -1.34098046	      0.76831093	      1.02751934	     -0.28900654	     -1.78692812	    -10.50282377	     -2.21068067	    -57.64239653	     15.97847165	    -11.96763900	    -41.36601211	     -2.61448351	     -2.82934327	    -11.91956676	    -64.02048494	     11.93027549	     -3.51738732	-3239899.80266297	      0.00000000	      0.00000000	      0.00000000
      4.93000000	     66.11705034	      4.42296182	     -1.36482061	      0.76834622	      1.02763793	     -0.28905349	     -1.80476716	    -10.54012117	     -2.21174228	    -57.69116688	     16.02786068	    -11.91609466	    -41.16846798	     -2.56014581	     -2.85487925	    -11.92761371	    -64.03385991	     12.77307612	     -3.93310914	-3268849.98584742	      0.00000000	      0.00000000	      0.00000000
      4.94000000	     66.12406908	      4.43605536	     -1.37613839	      0.76822204	      1.02763325	     -0.28885498	     -1.80324793	    -10.56175164	     -2.21217421	    -57.76026612	     16.12520091	    -11.83445138	    -40.80453361	     -2.52340815	     -2.89099357	    -11.90824167	    -63.97286535	     13.53060815	     -4.41671601	-3297914.00394127	      0.00000000	      0.00000000	      0.00000000
      4.95000000	     66.10700499	      4.42687316	     -1.37035999	      0.76821023	      1.02743808	     -0.28872957	     -1.78204600	    -10.55974518	     -2.21328190	    -57.83753495	     16.25473063	    -11.73580632	    -40.33232634	     -2.52054969	     -2.91975343	    -11.87521929	    -63.86548870	     14.11387667	     -4.89422974	-3327092.05716751	      0.00000000	      0.00000000	      0.00000000
      4.96000000	     66.08225333	      4.40686240	     -1.35653867	      0.76834202	      1.02732191	     -0.28878899	     -1.75265117	    -10.54113526	     -2.21467248	    -57.91198096	     16.39574714	    -11.63533654	    -39.82349948	     -2.53874350	     -2.93860362	    -11.83948717	    -63.74593672	     14.49820947	     -5.28780733	-3356384.39326382	      0.00000000	      0.00000000	      0.00000000
      4.97000000	     66.06322210	      4.38652398	     -1.34395625	      0.76842878	      1.02739789	     -0.28885397	     -1.73003163	    -10.52026853	     -2.21478240	    -57.97486239	     16.52622029	    -11.54800686	    -39.35186399	     -2.56097532	     -2.94777588	    -11.81023592	    -63.64968425	     14.70557476	     -5.52942606	-3385791.28744828	      0.00000000	      0.00000000	      0.00000000
      4.98000000	     66.05491911	      4.37557963	     -1.33870381	      0.76845347	      1.02744141	     -0.28886086	     -1.72406538	    -10.50980729	     -2.21220481	    -58.02008070	     16.62676865	    -11.48642631	    -38.98212659	     -2.57755424	     -2.95071099	    -11.79233427	    -63.60286426	     14.77124836	     -5.57298795	-3415313.02437888	      0.00000000	      0.00000000	      0.00000000
      4.99000000	     66.05954399	      4.37926647	     -1.34198472	      0.76844038	      1.02742584	     -0.28882432	     -1.73671405	    -10.51571716	     -2.20671112	    -58.04500892	     16.68404958	    -11.45914401	    -38.76043599	     -2.58301957	     -2.95016744	    -11.78785209	    -63.61647645	     14.71567550	     -5.40285121	-3444949.88324855	      0.00000000	      0.00000000	      0.00000000
      5.00000000	     66.07668964	      4.39619061	     -1.35093185	      0.76838832	      1.02749275	     -0.28877385	     -1.76349174	    -10.53614857	     -2.19947616	    -58.05109020	     16.69286448	    -11.46948747	    -38.70810837	     -2.57612256	     -2.94673350	    -11.79637283	    -63.68414431	     14.52935632	     -5.03755744	-3474702.12630515	      0.00000000	      0.00000000	      0.00000000
      5.01000000	     66.09911528	      4.41972109	     -1.36106288	      0.76837430	      1.02752145	     -0.28878692	     -1.79593872	    -10.56279025	     -2.19260676	    -58.04357367	     16.65661531	    -11.51506401	    -38.81936754	     -2.56412245	     -2.94050212	    -11.81340978	    -63.78344635	     14.17697860	     -4.52892953	-3504569.99114273	      0.00000000	      0.00000000	      0.00000000
      5.02000000	     66.11558519	      4.43656978	     -1.36605016	      0.76834502	      1.02745232	     -0.28878713	     -1.82380988	    -10.58416595	     -2.18819082	    -58.03030770	     16.58613775	    -11.58808811	    -39.06328078	     -2.55976559	     -2.92777022	    -11.83259370	    -63.88375512	     13.62355247	     -3.95663060	-3534553.68684318	      0.00000000	      0.00000000	      0.00000000
      5.03000000	     66.12020078	      4.43629973	     -1.36259426	      0.76822959	      1.02750179	     -0.28871797	     -1.83704584	    -10.59024415	     -2.18715624	    -58.01964337	     16.49731109	    -11.67658107	    -39.38941857	     -2.57205064	     -2.90884320	    -11.84449619	    -63.95086217	     12.86820606	     -3.41778939	-3564653.39258429	      0.00000000	      0.00000000	      0.00000000
      5.04000000	     66.11241298	      4.42028864	     -1.35371829	      0.76821337	      1.02769954	     -0.28877704	     -1.82870631	    -10.57676801	     -2.18853068	    -58.01794300	     16.40800962	    -11.76626201	    -39.73622825	     -2.60477935	     -2.89489968	    -11.83638106	    -63.95354883	     11.96771185	     -3.00954381	-3594869.25731827	      0.00000000	      0.00000000	      0.00000000
      5.05000000	     66.08870769	      4.39197956	     -1.34169511	      0.76839189	      1.02771729	     -0.28896912	     -1.79996921	    -10.54825281	     -2.18951479	    -58.02788215	     16.33493898	    -11.84282329	    -40.04078730	     -2.65990046	     -2.89402762	    -11.80205020	    -63.88033579	     11.04034648	     -2.80579064	-3625201.39992248	      0.00000000	      0.00000000	      0.00000000
      5.06000000	     66.05393424	      4.35754695	     -1.32983578	      0.76854351	      1.02743076	     -0.28898764	     -1.76381659	    -10.51869979	     -2.18648453	    -58.04840192	     16.29093121	    -11.89425662	    -40.24851347	     -2.72295604	     -2.90902078	    -11.74687412	    -63.74530486	     10.24527738	     -2.83767014	-3655649.90902330	      0.00000000	      0.00000000	      0.00000000
      5.07000000	     66.03403089	      4.33701064	     -1.33003490	      0.76849602	      1.02721733	     -0.28875571	     -1.74012954	    -10.50655891	     -2.17717528	    -58.07559367	     16.28327202	    -11.91280145	    -40.32146879	     -2.75553130	     -2.94827351	    -11.68272636	    -63.57965445	      9.73565980	     -3.08444621	-3686214.84146720	      0.00000000	      0.00000000	      0.00000000
